<?xml version="1.0" encoding="utf-8"?>
<!-- Generator: Adobe Illustrator 19.0.0, SVG Export Plug-In . SVG Version: 6.00 Build 0)  -->
<svg version="1.1" id="Layer_1" xmlns="http://www.w3.org/2000/svg" xmlns:xlink="http://www.w3.org/1999/xlink" x="0px" y="0px"
	 viewBox="0 0 484.5 525" style="enable-background:new 0 0 484.5 525;" xml:space="preserve">
<style type="text/css">
	.st0{fill-rule:evenodd;clip-rule:evenodd;}
</style>
<path class="st0" d="M414.3,176.7c26.8-27.6,32.6-61.8,19.4-97.8c-24-65.6-106-82.2-156.7-32.3c-10.3,10.1-19.3,20.7-31.4,33.1
	c-12.4-13.4-23.6-25.8-35.3-37c-17-16.5-38.1-24.7-61.9-25.1C109.8,16.7,75.1,39,59.7,74.3c-15.8,36.1-8.5,76.3,20,105.1
	c45.5,46.1,91.6,91.7,137.3,137.5c4.9,4.9,9.9,9.9,14.9,15v175.7h28.1v-20.1h37.5v-8.8h-18.8v-14.3h18.8v-14.3h-18.7v-17.6h18.7
	v-10.9h-37.5V332C292.4,300,371.2,220.9,414.3,176.7 M205.6,57.1c13.2,12.9,25.3,26.2,40,41.2c14.1-14.7,27.8-28.9,41.6-42.4
	c22.7-22.4,50-30.2,80.7-21.3c10.6,3.1,19.8,8,27.8,14.2c-2.7,2.8-6.2,6.4-10.5,10.8c-10.2-7.8-22.9-12.2-37.7-12.9
	c-19.5-0.9-36.1,6.1-49.8,20.1c-16.8,17.3-34.4,34.7-52,52.8c-18.9-19-35.1-36.7-52.7-53.9c-24.7-23.9-61.4-25.3-86.9-5.1
	c-5.5-5.6-9.1-9.3-10.6-10.8C128,23.1,173.5,25.3,205.6,57.1 M365.3,101.2c5.1,9.9,3.6,19.5-3.9,27.1c-31.1,31.4-89,88.7-108.8,108
	v-20.7c19-19.7,72.6-75.3,111.7-115.9C364.7,100.2,365.1,100.6,365.3,101.2 M317.5,88.1c-18.8,18.6-67.6,67.3-71.9,73.1
	c-5.2-4.5-50.4-52.5-72.9-74.4c-13.4-13.2-32.2-14.9-46.4-5.3c-3.9-4-7.5-7.7-10.8-11.1c9.9-7.3,22.2-11.1,34.9-10.1
	c13.9,1.1,25.4,7.5,35.2,17.4c19.5,19.9,39.5,39.6,60,60.3c3.2-2.9,44.6-44.6,63.3-62.7c18.7-18.2,46.5-19.8,66.3-5.5
	c-3.3,3.5-6.9,7.1-10.7,11.1C350.2,72,331.5,74.4,317.5,88.1 M369.2,140.1c14.9-14.9,16.4-35.6,4.8-50.4c3.8-3.9,7.3-7.6,10.7-11
	c16.3,19.4,18,48.1-0.1,66.8c-43.1,44.4-86.7,87.5-132,132.4v-21.3C273.4,236,336.3,173.3,369.2,140.1 M239.5,319.7
	c-12.5-12.6-25.9-25.5-38.6-38.3c-36.4-36.6-73.1-73.2-109.6-109.8C59,139.2,57.2,91,85.9,58.8c0.3,0.4,0.5,0.7,0.9,1
	c0.6,0.5,4.2,4.2,9.9,9.9c-21.9,25.8-21.2,63.2,3,88.7c8.3,8.7,16.8,16.9,25.3,25.4c37.8,37.9,76.3,75.7,114.5,113.8V319.7z
	 M239.5,278.7c-23.4-23.5-47.3-47-70.4-70.3c-20.1-20.3-40.7-40.1-60.5-60.8c-15.4-16.2-18.4-39-8.7-58.5c1.7-3.5,3.9-6.7,6.4-9.7
	c3.3,3.4,6.9,7,10.8,11c-10.7,14.3-9.7,33.4,3.5,47.7c3.8,4.1,78.8,78.9,119,119.1V278.7z M239.5,237
	c-18.7-18.4-76.4-75.6-106.2-105.3c-6.7-6.7-11.6-14-9.5-24c0.6-2.7,1.6-5.1,2.8-7.2c38.8,39.9,94.5,97.3,112.9,116.2V237z
	 M136.1,91.6c8.3-4,19-2.8,27.4,5.3c24.8,24.2,79.5,79.7,82.1,83.5c5.5-5.2,57.5-58.8,81.2-82c8.7-8.7,19.4-10.8,27.8-7.1
	c-44,45.5-103.9,107.4-109,112.7C240.2,198.4,179,135.6,136.1,91.6 M252.6,319.3v-22.2c23.3-22.6,100.7-99.3,141.5-141.6
	c19-19.5,22-44.5,11.1-69.7c-2.9-6.6-6.5-12.3-10.6-17.3c4.5-4.6,8.1-8.3,10.5-10.8c27,29.4,30.4,76.7-0.2,108.7
	C360.9,212.3,277.1,295.8,252.6,319.3"/>
</svg>
